<?xml version="1.0" encoding="utf-8"?>
<!-- Generator: Adobe Illustrator 23.0.0, SVG Export Plug-In . SVG Version: 6.00 Build 0)  -->
<svg version="1.1" id="Layer_1" xmlns="http://www.w3.org/2000/svg" xmlns:xlink="http://www.w3.org/1999/xlink" x="0px" y="0px"
	 viewBox="0 0 100 100" style="enable-background:new 0 0 100 100;" xml:space="preserve">
<style type="text/css">
	.st0{fill:#FFFF00;}
</style>
<circle class="st0" cx="49.55" cy="48.88" r="19.12"/>
<polygon class="st0" points="48.9,29.08 44.28,6 52.04,6 53.51,6 "/>
<polygon class="st0" points="49.9,69 54.51,92.08 46.75,92.08 45.28,92.08 "/>
<polygon class="st0" points="59.48,31.73 66.23,9.18 73.09,12.82 74.39,13.51 "/>
<polygon class="st0" points="70.36,48.59 93.42,43.87 93.45,51.63 93.46,53.1 "/>
<polygon class="st0" points="67.3,38.94 83.94,22.3 88.24,28.75 89.06,29.98 "/>
<polygon class="st0" points="40.46,32.73 33.7,10.18 26.85,13.82 25.55,14.51 "/>
<polygon class="st0" points="29.58,49.59 6.52,44.87 6.49,52.63 6.48,54.1 "/>
<polygon class="st0" points="32.64,39.94 16,23.3 11.7,29.75 10.88,30.98 "/>
<polygon class="st0" points="40.46,66.56 33.7,89.1 26.85,85.46 25.55,84.77 "/>
<polygon class="st0" points="29.58,49.7 6.52,54.41 6.49,46.65 6.48,45.18 "/>
<polygon class="st0" points="32.64,59.35 16,75.99 11.7,69.53 10.88,68.31 "/>
<polygon class="st0" points="59.48,65.56 66.23,88.1 73.09,84.46 74.39,83.77 "/>
<polygon class="st0" points="70.36,48.7 93.42,53.41 93.45,45.65 93.46,44.18 "/>
<polygon class="st0" points="67.3,58.35 83.94,74.99 88.24,68.53 89.06,67.31 "/>
</svg>
