<?xml version="1.0" encoding="utf-8"?>
<!-- Generator: Adobe Illustrator 23.0.0, SVG Export Plug-In . SVG Version: 6.00 Build 0)  -->
<svg version="1.1" id="Layer_1" xmlns="http://www.w3.org/2000/svg" xmlns:xlink="http://www.w3.org/1999/xlink" x="0px" y="0px"
	 viewBox="0 0 20 20" style="enable-background:new 0 0 20 20;" xml:space="preserve">
<style type="text/css">
	.st0{fill:#9B9B9B;}
	.st1{fill:#6D72BF;}
</style>
<circle class="st0" cx="5.42" cy="7.13" r="4.75"/>
<ellipse class="st0" cx="10.17" cy="10.69" rx="4.75" ry="3.56"/>
<circle class="st0" cx="10.17" cy="4.75" r="4.75"/>
<circle class="st0" cx="14.92" cy="7.13" r="4.75"/>
<path class="st1" d="M4.67,13.5c0,0.28-0.22,0.5-0.5,0.5c-0.28,0-0.5-0.22-0.5-0.5S3.89,12,4.17,12C4.44,12,4.67,13.22,4.67,13.5z"
	/>
<path class="st1" d="M8.67,15.5c0,0.28-0.22,0.5-0.5,0.5c-0.28,0-0.5-0.22-0.5-0.5S7.89,14,8.17,14C8.44,14,8.67,15.22,8.67,15.5z"
	/>
<path class="st1" d="M16.67,13.5c0,0.28-0.22,0.5-0.5,0.5s-0.5-0.22-0.5-0.5s0.22-1.5,0.5-1.5S16.67,13.22,16.67,13.5z"/>
<path class="st1" d="M16.67,16.5c0,0.28-0.22,0.5-0.5,0.5s-0.5-0.22-0.5-0.5s0.22-1.5,0.5-1.5S16.67,16.22,16.67,16.5z"/>
<path class="st1" d="M12.67,15.5c0,0.28-0.22,0.5-0.5,0.5c-0.28,0-0.5-0.22-0.5-0.5s0.22-1.5,0.5-1.5
	C12.44,14,12.67,15.22,12.67,15.5z"/>
<path class="st1" d="M10.67,16.5c0,0.28-0.22,0.5-0.5,0.5c-0.28,0-0.5-0.22-0.5-0.5s0.22-1.5,0.5-1.5
	C10.44,15,10.67,16.22,10.67,16.5z"/>
<path class="st1" d="M14.67,17.5c0,0.28-0.22,0.5-0.5,0.5c-0.28,0-0.5-0.22-0.5-0.5s0.22-1.5,0.5-1.5
	C14.44,16,14.67,17.22,14.67,17.5z"/>
<path class="st1" d="M14.67,14.5c0,0.28-0.22,0.5-0.5,0.5c-0.28,0-0.5-0.22-0.5-0.5s0.22-1.5,0.5-1.5
	C14.44,13,14.67,14.22,14.67,14.5z"/>
<path class="st1" d="M4.67,16.5c0,0.28-0.22,0.5-0.5,0.5c-0.28,0-0.5-0.22-0.5-0.5S3.89,15,4.17,15C4.44,15,4.67,16.22,4.67,16.5z"
	/>
<path class="st1" d="M6.67,14.5c0,0.28-0.22,0.5-0.5,0.5c-0.28,0-0.5-0.22-0.5-0.5S5.89,13,6.17,13C6.44,13,6.67,14.22,6.67,14.5z"
	/>
<path class="st1" d="M8.67,18.5c0,0.28-0.22,0.5-0.5,0.5c-0.28,0-0.5-0.22-0.5-0.5S7.89,17,8.17,17C8.44,17,8.67,18.22,8.67,18.5z"
	/>
<path class="st1" d="M12.67,18.5c0,0.28-0.22,0.5-0.5,0.5c-0.28,0-0.5-0.22-0.5-0.5s0.22-1.5,0.5-1.5
	C12.44,17,12.67,18.22,12.67,18.5z"/>
<path class="st1" d="M6.67,17.5c0,0.28-0.22,0.5-0.5,0.5c-0.28,0-0.5-0.22-0.5-0.5S5.89,16,6.17,16C6.44,16,6.67,17.22,6.67,17.5z"
	/>
<path class="st1" d="M10.67,19.5c0,0.28-0.22,0.5-0.5,0.5c-0.28,0-0.5-0.22-0.5-0.5s0.22-1.5,0.5-1.5
	C10.44,18,10.67,19.22,10.67,19.5z"/>
</svg>
